<?xml version="1.0" standalone="no"?>
<!DOCTYPE svg PUBLIC "-//W3C//DTD SVG 20010904//EN"
 "http://www.w3.org/TR/2001/REC-SVG-20010904/DTD/svg10.dtd">
<svg version="1.0" xmlns="http://www.w3.org/2000/svg"
 width="512.000000pt" height="512.000000pt" viewBox="0 0 512.000000 512.000000"
 preserveAspectRatio="xMidYMid meet">
<metadata>
Created by potrace 1.14, written by Peter Selinger 2001-2017
</metadata>
<g transform="translate(0.000000,512.000000) scale(0.100000,-0.100000)"
fill="#000000" stroke="none">
<path d="M2379 5116 c-2 -2 -35 -6 -74 -10 -248 -21 -552 -102 -789 -208 -99
-45 -226 -111 -268 -140 -14 -10 -29 -18 -32 -18 -3 0 -45 -28 -93 -61 -636
-444 -1031 -1104 -1111 -1859 -3 -36 -7 -157 -6 -270 0 -183 3 -241 19 -345 3
-16 7 -43 9 -60 30 -216 122 -497 236 -726 262 -526 713 -961 1233 -1190 50
-22 101 -45 112 -50 62 -28 307 -101 415 -123 216 -43 292 -51 525 -51 250 0
383 15 615 69 479 111 980 414 1308 791 24 28 51 59 61 70 253 290 482 794
546 1198 24 147 29 227 29 422 1 192 -2 251 -15 330 -4 28 -10 66 -13 85 -2
19 -10 60 -16 90 -6 30 -14 69 -17 85 -3 17 -20 81 -39 143 -220 727 -725
1300 -1420 1614 -82 38 -297 115 -341 122 -13 3 -39 10 -56 15 -39 12 -215 48
-277 56 -25 3 -61 8 -80 11 -41 6 -455 15 -461 10z m485 -530 c442 -70 823
-263 1137 -576 173 -172 292 -335 396 -545 67 -133 147 -365 168 -480 2 -16 9
-55 14 -85 44 -246 31 -583 -29 -825 -94 -375 -268 -682 -540 -956 -403 -405
-912 -613 -1480 -604 -151 2 -197 6 -310 26 -411 70 -776 255 -1078 544 -100
95 -223 242 -287 341 -21 32 -46 71 -56 85 -32 48 -137 272 -169 364 -38 108
-87 304 -96 383 -3 31 -10 86 -14 122 -15 118 -4 382 21 520 6 30 13 69 15 85
3 17 19 77 35 135 104 356 269 634 529 890 125 123 132 130 230 201 111 82
212 142 334 199 102 49 334 132 401 143 17 3 41 8 55 12 187 43 522 53 724 21z"/>
</g>
</svg>
